<?xml version="1.0" standalone="no"?>
<!DOCTYPE svg PUBLIC "-//W3C//DTD SVG 20010904//EN"
 "http://www.w3.org/TR/2001/REC-SVG-20010904/DTD/svg10.dtd">
<svg version="1.0" xmlns="http://www.w3.org/2000/svg"
 width="200.000000pt" height="200.000000pt" viewBox="0 0 200.000000 200.000000"
 preserveAspectRatio="xMidYMid meet">

<g transform="translate(0.000000,200.000000) scale(0.100000,-0.100000)"
fill="#000000" stroke="none">
<path d="M1067 1994 c-3 -3 -30 -9 -59 -13 -45 -5 -53 -9 -56 -28 -2 -13 -8
-23 -13 -23 -5 0 -9 -15 -9 -34 0 -31 5 -37 45 -56 25 -12 45 -26 45 -31 0 -5
18 -9 40 -9 38 0 60 -18 60 -49 0 -21 -33 -41 -66 -41 -28 0 -35 -4 -32 -17 2
-14 15 -19 54 -21 46 -3 53 0 69 24 17 27 18 27 104 21 127 -9 243 -53 334
-129 69 -57 109 -44 64 23 -54 81 -269 209 -387 231 -64 12 -81 27 -60 53 18
22 50 18 136 -16 90 -36 180 -55 217 -45 35 8 36 36 2 36 -14 0 -70 23 -125
50 -55 28 -128 57 -163 65 -62 15 -188 20 -200 9z"/>
<path d="M722 1746 c-16 -19 -33 -49 -37 -66 -4 -20 -15 -34 -30 -40 -13 -5
-26 -13 -29 -19 -12 -18 -297 -904 -292 -908 7 -7 220 -63 224 -58 5 5 202
911 202 930 0 8 -7 21 -16 30 -14 14 -15 22 -5 54 6 21 17 44 24 50 8 6 76 12
173 13 151 3 159 4 159 23 0 19 -8 20 -171 23 l-172 2 -30 -34z"/>
<path d="M1020 1631 c0 -24 -36 -51 -68 -51 -63 0 -148 -65 -190 -144 l-27
-51 -3 -668 -3 -667 25 -25 25 -25 296 0 296 0 25 25 25 25 -3 667 c-3 667 -3
668 -25 709 -12 23 -34 56 -49 73 -31 37 -112 81 -149 81 -26 0 -75 39 -75 60
0 5 -22 10 -50 10 -43 0 -50 -3 -50 -19z"/>
</g>
</svg>
