<?xml version="1.0" standalone="no"?>
<!DOCTYPE svg PUBLIC "-//W3C//DTD SVG 20010904//EN"
 "http://www.w3.org/TR/2001/REC-SVG-20010904/DTD/svg10.dtd">
<svg version="1.0" xmlns="http://www.w3.org/2000/svg"
 width="200.000000pt" height="200.000000pt" viewBox="0 0 200.000000 200.000000"
 preserveAspectRatio="xMidYMid meet">

<g transform="translate(0.000000,200.000000) scale(0.100000,-0.100000)"
fill="#000000" stroke="none">
<path d="M1562 1833 c2 -9 14 -20 28 -23 27 -6 47 -47 36 -75 -3 -9 -20 -22
-36 -28 -32 -12 -40 -34 -16 -43 20 -8 73 22 81 46 14 44 92 6 115 -55 24 -62
-2 -130 -61 -160 l-31 -17 -30 36 c-22 27 -37 36 -59 36 -23 0 -30 -4 -27 -17
2 -9 14 -20 28 -23 27 -6 47 -47 36 -75 -3 -9 -20 -22 -36 -28 -32 -12 -40
-34 -16 -43 19 -7 74 25 82 48 3 10 30 30 59 44 135 63 140 238 9 304 -27 14
-63 40 -81 58 -35 36 -87 46 -81 15z"/>
<path d="M525 1808 c-3 -7 -9 -71 -14 -141 -6 -71 -15 -135 -21 -142 -7 -8
-10 -40 -9 -75 2 -56 0 -62 -30 -92 -69 -67 -66 -39 -69 -612 l-3 -519 22 -23
c22 -23 27 -24 199 -24 172 0 177 1 198 23 22 23 22 23 22 533 0 567 1 550
-70 622 -31 31 -33 37 -31 93 1 34 -2 66 -9 74 -6 7 -15 71 -21 142 -5 70 -11
134 -14 141 -3 8 -28 12 -75 12 -47 0 -72 -4 -75 -12z m119 -70 c3 -24 8 -80
11 -125 l6 -83 -61 0 -61 0 5 48 c3 26 8 82 12 125 l6 77 38 0 c38 0 39 -1 44
-42z m36 -278 l0 -30 -80 0 -80 0 0 30 0 30 80 0 80 0 0 -30z m-2 -99 c80 -41
102 -92 102 -236 l0 -105 -181 0 -181 0 4 118 c3 110 5 121 31 161 49 74 148
101 225 62z m102 -561 l0 -180 -180 0 -180 0 0 180 0 180 180 0 180 0 0 -180z
m-2 -397 l-3 -178 -175 0 -175 0 -3 178 -2 177 180 0 180 0 -2 -177z"/>
<path d="M564 1626 c-3 -8 -4 -25 -2 -38 2 -19 9 -23 38 -23 33 0 35 2 35 35
0 32 -3 35 -33 38 -21 2 -34 -2 -38 -12z"/>
<path d="M1370 1806 c-10 -13 -9 -17 4 -22 22 -8 49 3 44 19 -7 18 -33 20 -48
3z"/>
<path d="M1220 1778 c-44 -12 -58 -24 -43 -39 11 -11 97 6 120 24 32 24 -12
34 -77 15z"/>
<path d="M1033 1737 c-80 -22 -79 -55 1 -43 50 8 82 28 72 44 -8 14 -17 14
-73 -1z"/>
<path d="M825 1687 c-23 -7 -40 -19 -40 -27 0 -18 65 -16 105 3 55 27 5 45
-65 24z"/>
<path d="M885 1610 c-13 -21 12 -31 71 -28 44 2 59 7 59 18 0 19 -119 28 -130
10z"/>
<path d="M1085 1610 c-13 -21 12 -31 71 -28 44 2 59 7 59 18 0 19 -119 28
-130 10z"/>
<path d="M1285 1610 c-13 -21 12 -31 71 -28 44 2 59 7 59 18 0 19 -119 28
-130 10z"/>
<path d="M786 1551 c-12 -19 3 -29 60 -42 39 -9 58 -9 65 -2 17 17 3 30 -38
37 -21 3 -48 9 -59 12 -12 3 -25 1 -28 -5z"/>
<path d="M982 1493 c3 -17 92 -47 116 -38 30 11 10 34 -38 44 -70 15 -82 14
-78 -6z"/>
<path d="M1177 1464 c-18 -19 -3 -34 47 -45 62 -13 95 -7 77 15 -6 7 -29 16
-50 20 -22 3 -46 8 -53 11 -8 3 -17 2 -21 -1z"/>
<path d="M1372 1403 c4 -22 43 -25 43 -3 0 8 -11 16 -23 18 -19 3 -23 0 -20
-15z"/>
</g>
</svg>
