<?xml version="1.0" standalone="no"?>
<!DOCTYPE svg PUBLIC "-//W3C//DTD SVG 20010904//EN"
 "http://www.w3.org/TR/2001/REC-SVG-20010904/DTD/svg10.dtd">
<svg version="1.0" xmlns="http://www.w3.org/2000/svg"
 width="200.000000pt" height="200.000000pt" viewBox="0 0 200.000000 200.000000"
 preserveAspectRatio="xMidYMid meet">

<g transform="translate(0.000000,200.000000) scale(0.100000,-0.100000)"
fill="#000000" stroke="none">
<path d="M870 1917 c0 -39 -17 -77 -62 -135 -68 -87 -64 -182 10 -258 l37 -38
6 49 c3 28 19 77 34 110 36 75 43 154 21 223 -21 61 -46 88 -46 49z"/>
<path d="M997 1539 c-35 -9 -57 -27 -57 -45 0 -10 14 -14 49 -14 56 0 81 -22
81 -72 0 -36 15 -43 34 -16 24 33 20 82 -9 116 -28 33 -57 42 -98 31z"/>
<path d="M770 1450 c-11 -7 -16 -33 -18 -100 l-4 -90 156 0 c93 0 156 4 156
10 0 43 -26 164 -37 176 -17 16 -228 20 -253 4z m55 -95 c0 -22 -5 -40 -12
-42 -9 -3 -13 9 -13 42 0 33 4 45 13 43 7 -3 12 -21 12 -43z"/>
<path d="M1158 1356 c-83 -16 -81 -26 5 -26 70 0 77 2 77 20 0 22 -1 22 -82 6z"/>
<path d="M1090 1280 c0 -18 7 -20 65 -20 58 0 65 2 65 20 0 18 -7 20 -65 20
-58 0 -65 -2 -65 -20z"/>
<path d="M750 681 c0 -543 3 -594 33 -613 7 -4 105 -8 218 -8 187 0 207 2 222
18 15 17 17 72 17 585 l0 567 -245 0 -245 0 0 -549z"/>
</g>
</svg>
