<?xml version="1.0" standalone="no"?>
<!DOCTYPE svg PUBLIC "-//W3C//DTD SVG 20010904//EN"
 "http://www.w3.org/TR/2001/REC-SVG-20010904/DTD/svg10.dtd">
<svg version="1.0" xmlns="http://www.w3.org/2000/svg"
 width="256.000000pt" height="256.000000pt" viewBox="0 0 256.000000 256.000000"
 preserveAspectRatio="xMidYMid meet">

<g transform="translate(0.000000,256.000000) scale(0.100000,-0.100000)"
fill="#000000" stroke="none">
<path d="M870 1853 c-222 -34 -398 -121 -451 -224 -24 -49 -24 -72 2 -126 75
-156 459 -267 806 -234 266 26 491 121 549 232 20 40 18 106 -7 145 -59 97
-252 182 -482 213 -107 15 -302 12 -417 -6z m403 -176 c59 -27 97 -71 97 -114
0 -12 -14 -38 -31 -57 -91 -104 -375 -109 -476 -9 -48 49 -46 93 6 143 55 52
121 70 246 67 83 -3 111 -8 158 -30z"/>
<path d="M987 1626 c-54 -15 -93 -46 -84 -69 3 -7 21 -22 41 -31 107 -51 293
-35 346 29 13 15 11 20 -9 36 -55 45 -195 61 -294 35z"/>
<path d="M400 1185 c0 -234 3 -248 59 -308 70 -76 240 -145 422 -171 87 -13
212 -16 682 -16 l576 0 -11 31 c-9 26 -7 39 12 78 l22 48 -21 41 c-26 51 -26
58 0 106 l20 39 -21 49 c-17 40 -19 56 -11 79 l10 29 -543 0 c-579 0 -700 7
-856 46 -109 28 -240 87 -292 133 -20 17 -38 31 -42 31 -3 0 -6 -97 -6 -215z"/>
<path d="M1750 1368 c-19 -16 -69 -46 -110 -66 l-74 -37 108 -3 c60 -1 111 -1
113 1 2 3 3 34 1 70 l-3 65 -35 -30z"/>
</g>
</svg>
