<?xml version="1.0" standalone="no"?>
<!DOCTYPE svg PUBLIC "-//W3C//DTD SVG 20010904//EN"
 "http://www.w3.org/TR/2001/REC-SVG-20010904/DTD/svg10.dtd">
<svg version="1.0" xmlns="http://www.w3.org/2000/svg"
 width="1600.000000pt" height="1690.000000pt" viewBox="0 0 1600.000000 1690.000000"
 preserveAspectRatio="xMidYMid meet">

<g transform="translate(0.000000,1690.000000) scale(0.100000,-0.100000)"
fill="#000000" stroke="none">
<path d="M9580 15686 c-103 -30 -210 -101 -266 -177 -20 -27 -48 -82 -61 -122
-22 -61 -25 -84 -20 -149 14 -214 184 -376 472 -453 517 -138 860 -263 1240
-450 693 -342 1051 -729 1081 -1168 6 -81 -7 -232 -21 -246 -3 -2 -35 16 -72
41 -629 419 -1603 702 -2803 817 -509 49 -838 64 -1430 64 -1985 0 -3546 -271
-4240 -736 -307 -205 -453 -425 -467 -700 -7 -130 4 -197 63 -401 24 -82 44
-155 44 -162 0 -7 -13 -34 -29 -61 -46 -74 -74 -207 -75 -343 -1 -131 11 -186
75 -344 50 -124 49 -155 -10 -302 -90 -228 -90 -342 4 -619 30 -89 55 -171 55
-183 0 -11 -20 -67 -44 -124 -65 -152 -80 -214 -80 -348 -1 -134 19 -216 84
-355 22 -47 40 -98 40 -114 0 -15 -18 -67 -39 -113 -62 -134 -82 -204 -88
-308 -8 -142 25 -306 88 -432 16 -32 29 -69 29 -84 0 -14 -20 -77 -45 -140
-57 -144 -75 -219 -75 -317 0 -105 22 -207 77 -346 25 -64 46 -134 46 -156 1
-27 -12 -69 -40 -130 -55 -120 -73 -184 -80 -282 -10 -139 23 -289 99 -457
l41 -90 -41 -75 c-64 -119 -94 -220 -99 -336 -6 -125 9 -202 72 -361 26 -65
49 -142 52 -170 5 -48 1 -62 -45 -161 -65 -139 -76 -179 -75 -288 1 -135 46
-297 144 -522 l22 -52 -50 -108 c-90 -191 -118 -316 -110 -495 5 -128 23 -202
77 -308 112 -223 413 -486 746 -653 472 -237 1173 -455 1699 -529 138 -19 444
-16 530 5 208 52 304 154 313 332 5 88 -9 146 -54 235 -49 98 -186 221 -304
272 -77 34 -112 42 -395 93 -476 86 -751 148 -967 219 -75 24 -151 51 -170 59
-161 73 -222 105 -294 153 -116 78 -121 88 -27 58 43 -13 117 -36 165 -50 49
-14 186 -59 305 -100 321 -110 477 -146 916 -209 1672 -239 3516 -190 4882
132 217 51 655 173 729 204 12 4 73 27 136 49 247 89 506 214 715 345 437 273
727 613 855 1003 47 144 63 256 57 402 -5 134 -29 226 -82 316 -14 23 -25 53
-25 66 0 13 16 71 35 129 92 270 95 425 15 683 -22 70 -40 145 -40 167 0 21
18 93 39 161 50 159 64 249 59 389 -3 112 -4 116 -51 216 -26 56 -51 117 -54
136 -3 24 9 87 40 203 25 93 51 196 56 228 14 78 14 221 0 288 -11 50 -64 173
-91 210 -14 19 -16 9 46 217 85 289 86 429 4 615 -57 129 -59 172 -14 312 47
150 66 257 66 373 0 111 -16 182 -66 294 -53 117 -53 122 7 324 49 166 53 187
57 308 5 151 -7 211 -66 339 -46 101 -48 161 -9 254 68 156 94 387 63 542 -10
47 -31 120 -48 163 -34 89 -34 83 16 262 58 205 77 329 83 525 6 195 -8 331
-53 499 -161 615 -680 1151 -1529 1581 -371 189 -842 366 -1325 501 -166 46
-197 52 -305 55 -79 2 -135 -1 -165 -10z m310 -170 c294 -57 626 -166 1085
-358 447 -187 775 -382 1080 -642 354 -301 603 -711 695 -1141 31 -144 38
-412 15 -559 -62 -400 -272 -756 -601 -1021 -589 -475 -1630 -798 -3034 -939
-471 -48 -926 -69 -1500 -69 -1672 0 -2911 208 -3700 621 -230 120 -357 210
-500 352 -164 162 -249 321 -269 501 -78 699 887 1156 2849 1348 792 78 1962
95 2740 41 933 -66 1798 -232 2366 -455 184 -73 442 -201 634 -316 96 -58 183
-109 194 -112 26 -10 15 -44 -42 -140 -84 -140 -298 -329 -354 -311 -13 4 -88
46 -168 94 -204 124 -350 188 -660 291 -878 291 -2177 425 -3655 379 -515 -16
-890 -41 -1280 -86 -989 -112 -1650 -308 -2003 -591 -36 -29 -41 -38 -36 -61
21 -87 132 -213 264 -300 283 -186 817 -376 1338 -476 329 -64 866 -128 1357
-163 314 -22 1425 -26 1735 -5 941 61 1650 169 2246 341 867 250 1361 615
1475 1087 42 174 25 421 -42 610 -149 423 -495 755 -1094 1049 -338 166 -641
276 -1153 419 -151 42 -291 84 -313 93 -50 20 -113 91 -133 150 -9 26 -16 78
-16 117 0 130 69 232 180 263 53 15 188 10 300 -11z m-1830 -2596 c823 -24
1452 -91 2015 -215 601 -133 1038 -287 1242 -437 67 -49 71 -57 42 -80 -70
-55 -389 -190 -639 -270 -92 -29 -118 -33 -205 -32 -101 1 -267 28 -490 80
-485 112 -1123 184 -1895 214 -384 15 -1110 3 -1510 -25 -577 -41 -1109 -106
-1563 -191 -321 -61 -405 -63 -527 -13 -61 25 -543 299 -589 335 -12 10 61 82
120 120 89 58 176 96 324 144 210 67 255 78 604 149 29 6 178 29 330 51 542
78 1162 133 1791 160 239 10 327 13 525 18 44 1 235 -3 425 -8z m4682 -812
c19 -77 16 -296 -5 -378 -70 -262 -218 -494 -468 -735 -146 -140 -262 -225
-456 -336 -718 -407 -1847 -662 -3373 -761 -315 -21 -1510 -17 -1830 5 -656
46 -1169 117 -1619 223 -471 111 -998 323 -1301 522 -375 247 -582 570 -542
845 10 68 64 217 79 217 3 0 48 -38 100 -85 304 -271 645 -457 1129 -615 597
-195 1254 -306 2204 -372 252 -18 1471 -18 1745 0 1567 101 2622 328 3382 727
341 179 654 440 880 732 26 34 51 62 55 62 3 1 12 -23 20 -51z m-4672 -88
c633 -21 1097 -68 1755 -175 303 -50 310 -51 275 -70 -156 -82 -710 -160
-1470 -205 -327 -19 -390 -22 -702 -29 -739 -18 -1601 31 -2228 125 -299 45
-656 124 -620 137 232 87 1089 172 2175 216 280 12 495 12 815 1z m4669 -856
c30 -72 40 -214 22 -305 -40 -200 -173 -459 -349 -674 -263 -324 -713 -590
-1362 -805 -285 -95 -506 -155 -755 -206 -916 -189 -1797 -265 -2910 -251
-716 9 -1214 45 -1758 128 -309 47 -674 122 -867 179 -229 68 -287 87 -415
135 -224 84 -523 231 -665 328 -124 84 -323 275 -392 374 -45 66 -104 191
-118 253 -22 92 -16 192 20 336 17 71 34 132 37 136 7 12 53 -21 133 -97 77
-72 251 -195 400 -281 617 -359 1564 -579 2880 -669 309 -21 933 -38 1155 -31
105 3 273 8 375 11 846 24 1766 143 2465 319 704 178 1160 380 1585 705 195
148 256 208 408 399 36 45 70 81 76 79 6 -2 22 -30 35 -63z m-3 -938 c14 -30
29 -81 34 -113 36 -213 -107 -566 -348 -863 -91 -113 -120 -142 -207 -212
-545 -439 -1229 -697 -2335 -883 -751 -126 -1505 -185 -2371 -185 -455 0 -698
8 -1054 35 -1273 98 -2259 370 -2838 782 -93 67 -270 237 -315 304 -40 60
-105 191 -128 259 -29 85 -24 226 14 368 16 62 33 116 36 119 3 3 28 -12 54
-33 27 -21 95 -76 151 -122 256 -207 487 -329 911 -484 79 -29 125 -43 315
-99 862 -255 2170 -385 3405 -339 919 34 1700 133 2445 309 956 226 1632 555
1982 966 47 55 113 132 147 172 33 39 65 72 69 72 4 1 19 -23 33 -53z m9 -991
c26 -87 16 -269 -19 -389 -117 -392 -366 -700 -776 -960 -767 -487 -1975 -773
-3622 -857 -220 -11 -1410 -7 -1493 5 -16 2 -84 7 -150 10 -307 17 -733 60
-1055 107 -686 101 -1204 253 -1682 496 -435 221 -690 459 -780 728 -18 56
-23 91 -22 175 0 58 6 125 13 150 20 70 72 191 81 188 5 -2 66 -50 136 -108
171 -142 327 -245 502 -333 601 -303 1398 -495 2417 -582 537 -46 1432 -67
1910 -46 1770 78 3189 417 3920 934 123 88 204 165 415 395 184 201 173 197
205 87z m-1 -916 c41 -396 -90 -735 -409 -1055 -261 -262 -598 -468 -1057
-648 -1304 -509 -3830 -682 -5708 -390 -538 83 -1010 204 -1385 353 -125 50
-331 153 -430 216 -388 244 -576 521 -576 850 0 106 27 275 48 296 8 8 39 -17
230 -184 305 -268 893 -510 1603 -661 1125 -239 2565 -307 3915 -185 998 90
1874 281 2505 547 301 127 517 251 787 454 101 75 288 269 358 369 39 55 85
99 106 99 3 0 9 -28 13 -61z m-15 -926 c110 -219 -16 -635 -298 -985 -134
-166 -367 -344 -677 -513 -755 -415 -1838 -671 -3224 -762 -333 -21 -1315 -25
-1630 -5 -1215 76 -2010 221 -2674 488 -533 215 -846 455 -1004 770 -73 144
-82 266 -37 469 15 66 30 126 34 133 9 15 87 -39 226 -158 216 -185 425 -299
824 -449 632 -239 1531 -393 2641 -452 296 -15 1204 -16 1470 -1 592 35 1100
89 1520 163 859 150 1529 369 2045 667 249 143 395 264 610 506 80 91 148 166
151 166 2 0 12 -17 23 -37z m8 -976 c29 -84 25 -274 -10 -400 -35 -127 -69
-212 -125 -315 -427 -773 -1683 -1283 -3612 -1467 -1121 -106 -2401 -77 -3405
80 -427 66 -750 143 -1079 255 -932 319 -1427 765 -1357 1223 13 82 63 231 82
243 15 9 94 -48 234 -168 183 -156 297 -227 549 -338 282 -125 492 -197 799
-275 823 -209 2108 -322 3274 -287 1821 55 3129 353 3988 911 194 125 335 255
524 478 57 68 107 120 111 118 5 -3 17 -29 27 -58z m7 -976 c37 -127 15 -325
-59 -508 -141 -354 -394 -638 -770 -868 -681 -418 -1806 -703 -3190 -809 -328
-26 -636 -36 -1080 -37 -985 -1 -1814 73 -2538 225 -537 114 -1041 302 -1372
515 -316 202 -489 404 -556 646 -30 110 -24 273 15 392 15 45 31 85 36 88 12
7 22 0 141 -100 198 -165 326 -248 574 -372 419 -211 910 -351 1548 -443 1192
-171 2533 -204 3662 -89 1281 130 2274 428 2963 891 154 103 346 261 394 325
24 31 76 96 116 145 84 102 85 102 116 -1z m-9297 -1471 c224 -169 248 -192
300 -283 111 -191 290 -320 653 -467 336 -136 603 -206 1165 -304 314 -55 440
-98 533 -181 73 -66 96 -125 97 -250 l0 -100 -85 -43 c-152 -77 -302 -87 -590
-37 -966 167 -1700 456 -2078 819 -105 101 -164 179 -213 281 -55 115 -73 191
-73 316 l0 106 64 132 c35 72 65 131 66 131 2 0 74 -54 161 -120z"/>

</g>
</svg>
